<?xml version="1.0" encoding="UTF-8"?>
<svg xmlns="http://www.w3.org/2000/svg" xmlns:xlink="http://www.w3.org/1999/xlink" width="84px" height="27px" viewBox="0 0 83 27" version="1.1">
<g id="surface1">
<path style=" stroke:none;fill-rule:nonzero;fill:rgb(0%,0%,0%);fill-opacity:1;" d="M 41.429688 3.300781 C 41.402344 3.386719 41.355469 4.425781 41.332031 5.625 C 41.277344 7.84375 41.253906 8.144531 41.089844 8.203125 C 40.984375 8.242188 40.4375 8.050781 40.378906 7.949219 C 40.359375 7.914062 40.414062 7.800781 40.503906 7.710938 C 40.589844 7.613281 40.691406 7.46875 40.730469 7.394531 C 40.824219 7.222656 40.894531 5.199219 40.835938 4.585938 L 40.789062 4.144531 L 40.261719 4.144531 C 39.929688 4.144531 39.671875 4.113281 39.558594 4.050781 C 39.339844 3.933594 39.320312 4.019531 39.507812 4.324219 C 39.652344 4.566406 39.773438 4.636719 40.113281 4.703125 L 40.355469 4.75 L 40.355469 7.039062 L 40.164062 7.25 C 40.007812 7.425781 39.964844 7.449219 39.878906 7.382812 C 39.820312 7.335938 39.75 7.210938 39.714844 7.105469 C 39.65625 6.941406 39.671875 6.902344 39.808594 6.808594 C 40.007812 6.675781 40.007812 6.511719 39.800781 6.316406 C 39.578125 6.105469 39.203125 6.117188 38.628906 6.367188 L 38.175781 6.574219 L 38.46875 6.703125 C 38.628906 6.777344 38.8125 6.84375 38.878906 6.84375 C 38.941406 6.84375 39.007812 6.894531 39.03125 6.953125 C 39.183594 7.40625 39.417969 7.808594 39.695312 8.09375 C 40.027344 8.425781 40.71875 8.816406 40.984375 8.816406 C 41.097656 8.816406 41.148438 8.894531 41.265625 9.242188 C 41.394531 9.652344 41.492188 9.796875 41.570312 9.71875 C 41.589844 9.699219 41.667969 9.492188 41.753906 9.269531 L 41.898438 8.855469 L 42.28125 8.75 C 43.082031 8.53125 43.726562 7.886719 43.96875 7.074219 C 44.039062 6.835938 44.070312 6.800781 44.296875 6.769531 C 44.433594 6.75 44.625 6.699219 44.714844 6.644531 C 44.871094 6.558594 44.871094 6.558594 44.46875 6.355469 C 44.167969 6.210938 44.050781 6.113281 44 5.960938 C 43.882812 5.625 43.601562 5.324219 43.257812 5.15625 C 43.074219 5.074219 42.875 5 42.816406 5 C 42.742188 5 42.699219 4.949219 42.699219 4.875 C 42.699219 4.78125 42.769531 4.738281 42.976562 4.683594 C 43.277344 4.605469 43.5 4.414062 43.601562 4.125 L 43.675781 3.949219 L 43.480469 4.046875 C 43.355469 4.113281 43.101562 4.144531 42.730469 4.144531 L 42.175781 4.144531 L 42.175781 5.65625 C 42.175781 7.289062 42.191406 7.375 42.527344 7.691406 C 42.621094 7.78125 42.699219 7.875 42.699219 7.902344 C 42.699219 7.960938 42.300781 8.152344 42.058594 8.199219 C 41.882812 8.238281 41.863281 8.21875 41.785156 7.949219 C 41.734375 7.757812 41.6875 6.941406 41.664062 5.480469 C 41.636719 4.011719 41.597656 3.269531 41.550781 3.222656 C 41.5 3.171875 41.46875 3.191406 41.429688 3.300781 Z M 43.109375 5.738281 C 43.402344 5.949219 43.441406 6.085938 43.25 6.277344 C 43.054688 6.472656 43.042969 6.675781 43.21875 6.789062 C 43.375 6.886719 43.382812 6.980469 43.25 7.238281 C 43.121094 7.492188 43.023438 7.488281 42.828125 7.199219 C 42.699219 6.992188 42.664062 6.863281 42.644531 6.34375 C 42.625 6.007812 42.632812 5.683594 42.652344 5.625 C 42.699219 5.511719 42.835938 5.546875 43.109375 5.738281 Z M 43.109375 5.738281 "/>
<path style=" stroke:none;fill-rule:nonzero;fill:rgb(0%,0%,0%);fill-opacity:1;" d="M 12.824219 17.507812 L 12.824219 19.550781 L 12.589844 19.324219 C 12.457031 19.199219 12.183594 19.007812 11.984375 18.90625 C 11.644531 18.730469 11.566406 18.71875 10.871094 18.71875 C 10.160156 18.71875 10.09375 18.730469 9.679688 18.925781 C 8.851562 19.328125 8.234375 20.171875 7.964844 21.28125 C 7.804688 21.949219 7.804688 23.539062 7.960938 24.242188 C 8.21875 25.382812 8.84375 26.277344 9.664062 26.683594 C 10.035156 26.863281 10.101562 26.875 10.871094 26.875 C 11.671875 26.875 11.691406 26.867188 12.082031 26.65625 C 12.300781 26.539062 12.582031 26.335938 12.699219 26.210938 L 12.921875 25.980469 L 12.984375 26.394531 L 13.050781 26.808594 L 13.980469 26.828125 L 14.90625 26.847656 L 14.90625 15.460938 L 12.824219 15.460938 Z M 12.261719 20.617188 C 12.804688 20.941406 12.824219 21.007812 12.824219 22.800781 C 12.824219 24.25 12.808594 24.394531 12.691406 24.585938 C 12.238281 25.34375 10.910156 25.414062 10.382812 24.710938 C 10.03125 24.242188 9.867188 23.34375 9.964844 22.316406 C 10.054688 21.324219 10.355469 20.757812 10.933594 20.492188 C 11.273438 20.34375 11.890625 20.402344 12.261719 20.617188 Z M 12.261719 20.617188 "/>
<path style=" stroke:none;fill-rule:nonzero;fill:rgb(0%,0%,0%);fill-opacity:1;" d="M 42.957031 17.46875 L 42.957031 19.472656 L 42.5625 19.175781 C 42.019531 18.777344 41.597656 18.65625 40.828125 18.699219 C 40.316406 18.722656 40.160156 18.761719 39.792969 18.949219 C 38.703125 19.492188 38.078125 20.644531 37.972656 22.335938 C 37.886719 23.625 38.15625 24.835938 38.703125 25.671875 C 39.03125 26.175781 39.339844 26.441406 39.878906 26.699219 C 40.222656 26.863281 40.320312 26.875 41.039062 26.875 C 41.800781 26.875 41.832031 26.867188 42.214844 26.65625 C 42.4375 26.539062 42.71875 26.335938 42.835938 26.210938 L 43.054688 25.980469 L 43.1875 26.808594 L 45.074219 26.808594 L 45.09375 21.132812 L 45.105469 15.460938 L 42.957031 15.460938 Z M 42.398438 20.617188 C 42.945312 20.941406 42.957031 21 42.957031 22.84375 L 42.957031 24.449219 L 42.730469 24.71875 C 42.425781 25.078125 42.046875 25.222656 41.507812 25.183594 C 40.914062 25.152344 40.628906 24.949219 40.339844 24.363281 L 40.125 23.914062 L 40.125 22.894531 C 40.125 21.71875 40.222656 21.269531 40.570312 20.875 C 41.019531 20.363281 41.78125 20.25 42.398438 20.617188 Z M 42.398438 20.617188 "/>
<path style=" stroke:none;fill-rule:nonzero;fill:rgb(0%,0%,0%);fill-opacity:1;" d="M 77.882812 16.027344 C 76.667969 16.300781 75.792969 16.921875 75.382812 17.816406 C 75.226562 18.152344 75.210938 18.269531 75.210938 18.914062 C 75.210938 19.578125 75.222656 19.671875 75.398438 20.03125 C 75.847656 20.96875 76.777344 21.605469 78.644531 22.261719 C 80.253906 22.824219 80.695312 23.144531 80.761719 23.808594 C 80.800781 24.230469 80.746094 24.414062 80.539062 24.671875 C 80.265625 24.992188 79.910156 25.144531 79.304688 25.183594 C 77.957031 25.269531 77.160156 24.730469 77.050781 23.652344 L 77.03125 23.453125 L 75.945312 23.433594 L 74.851562 23.421875 L 74.851562 23.710938 C 74.851562 24.738281 75.617188 25.84375 76.707031 26.386719 C 77.5 26.78125 78.085938 26.90625 79.148438 26.90625 C 80.617188 26.90625 81.457031 26.617188 82.210938 25.863281 C 82.53125 25.539062 82.675781 25.328125 82.777344 25.046875 C 83.105469 24.175781 83.007812 23.117188 82.539062 22.386719 C 82.050781 21.617188 81.195312 21.09375 79.441406 20.460938 C 77.773438 19.867188 77.355469 19.550781 77.371094 18.875 C 77.375 18.460938 77.546875 18.171875 77.941406 17.925781 C 78.25 17.738281 78.289062 17.730469 79.011719 17.730469 C 79.71875 17.730469 79.785156 17.742188 80.070312 17.914062 C 80.453125 18.144531 80.695312 18.488281 80.746094 18.894531 L 80.792969 19.210938 L 81.886719 19.210938 C 83.15625 19.210938 83.066406 19.269531 82.890625 18.5 C 82.617188 17.335938 81.710938 16.433594 80.449219 16.078125 C 79.914062 15.925781 78.445312 15.902344 77.882812 16.027344 Z M 77.882812 16.027344 "/>
<path style=" stroke:none;fill-rule:nonzero;fill:rgb(0%,0%,0%);fill-opacity:1;" d="M 0.0117188 21.425781 L 0.03125 26.808594 L 7.128906 26.808594 L 7.128906 25.03125 L 4.671875 25.011719 L 2.214844 25 L 2.214844 22.171875 L 6.378906 22.171875 L 6.378906 20.394531 L 2.214844 20.394531 L 2.214844 17.828125 L 7.09375 17.828125 L 7.09375 16.050781 L 0 16.050781 Z M 0.0117188 21.425781 "/>
<path style=" stroke:none;fill-rule:nonzero;fill:rgb(0%,0%,0%);fill-opacity:1;" d="M 65.398438 20.046875 L 65.378906 24.046875 L 65.203125 24.40625 C 65.082031 24.65625 64.945312 24.828125 64.75 24.953125 C 64.488281 25.125 64.429688 25.136719 63.917969 25.117188 C 63.453125 25.105469 63.332031 25.074219 63.15625 24.941406 C 62.886719 24.738281 62.746094 24.433594 62.699219 23.972656 L 62.660156 23.617188 L 60.464844 23.617188 L 60.464844 23.894531 C 60.464844 24.296875 60.628906 24.949219 60.832031 25.34375 C 61.175781 26.027344 61.957031 26.597656 62.824219 26.808594 C 63.371094 26.941406 64.621094 26.941406 65.113281 26.808594 C 65.984375 26.578125 66.800781 25.953125 67.183594 25.222656 C 67.5625 24.519531 67.5625 24.472656 67.5625 20.085938 L 67.5625 16.050781 L 65.417969 16.050781 Z M 65.398438 20.046875 "/>
<path style=" stroke:none;fill-rule:nonzero;fill:rgb(0%,0%,0%);fill-opacity:1;" d="M 27.097656 18.78125 C 25.886719 19.050781 24.910156 19.980469 24.851562 20.921875 L 24.832031 21.21875 L 26.90625 21.21875 L 26.945312 21.019531 C 27.011719 20.710938 27.15625 20.53125 27.453125 20.386719 C 27.820312 20.210938 28.476562 20.230469 28.75 20.433594 C 29.027344 20.636719 29.222656 21.085938 29.222656 21.519531 L 29.222656 21.886719 L 28.25 21.925781 C 27.703125 21.953125 27.078125 22.019531 26.828125 22.078125 C 25.558594 22.394531 24.84375 23.074219 24.679688 24.125 C 24.503906 25.21875 24.992188 26.144531 26.003906 26.652344 C 26.414062 26.855469 26.515625 26.875 27.148438 26.894531 C 27.6875 26.914062 27.921875 26.894531 28.195312 26.808594 C 28.578125 26.675781 28.9375 26.46875 29.121094 26.257812 C 29.277344 26.085938 29.355469 26.078125 29.355469 26.25 C 29.355469 26.324219 29.398438 26.488281 29.445312 26.613281 L 29.542969 26.84375 L 31.644531 26.84375 L 31.613281 26.664062 C 31.59375 26.558594 31.527344 26.300781 31.476562 26.085938 C 31.390625 25.769531 31.371094 25.28125 31.371094 23.683594 C 31.371094 21.277344 31.320312 20.710938 31.046875 20.152344 C 30.703125 19.453125 29.953125 18.921875 29.0625 18.757812 C 28.554688 18.65625 27.597656 18.671875 27.097656 18.78125 Z M 29.222656 23.855469 C 29.222656 24.449219 29.203125 24.578125 29.09375 24.738281 C 28.820312 25.125 27.851562 25.425781 27.382812 25.269531 C 26.5625 24.992188 26.542969 23.800781 27.351562 23.382812 C 27.628906 23.238281 28.007812 23.171875 28.65625 23.164062 L 29.222656 23.15625 Z M 29.222656 23.855469 "/>
<path style=" stroke:none;fill-rule:nonzero;fill:rgb(0%,0%,0%);fill-opacity:1;" d="M 36.15625 18.761719 C 35.835938 18.882812 35.460938 19.164062 35.238281 19.453125 L 35.03125 19.722656 L 34.992188 19.269531 L 34.945312 18.816406 L 32.933594 18.816406 L 32.949219 22.808594 L 32.96875 26.808594 L 35.050781 26.808594 L 35.113281 21.441406 L 35.382812 21.183594 C 35.71875 20.867188 35.992188 20.789062 36.792969 20.789062 L 37.425781 20.789062 L 37.425781 19.777344 C 37.425781 18.78125 37.425781 18.761719 37.28125 18.722656 C 37.046875 18.664062 36.371094 18.683594 36.15625 18.761719 Z M 36.15625 18.761719 "/>
<path style=" stroke:none;fill-rule:nonzero;fill:rgb(0%,0%,0%);fill-opacity:1;" d="M 49.117188 18.78125 C 48.140625 19.03125 47.300781 19.71875 46.863281 20.617188 C 46.53125 21.296875 46.40625 21.882812 46.40625 22.816406 C 46.40625 24.164062 46.746094 25.132812 47.46875 25.882812 C 48.179688 26.613281 48.953125 26.90625 50.148438 26.90625 C 51.339844 26.90625 52.011719 26.644531 52.761719 25.894531 C 53.554688 25.09375 53.855469 24.242188 53.847656 22.796875 C 53.839844 21.402344 53.515625 20.472656 52.78125 19.730469 C 52.355469 19.300781 52 19.074219 51.445312 18.875 C 50.9375 18.691406 49.675781 18.644531 49.117188 18.78125 Z M 50.917969 20.636719 C 51.21875 20.847656 51.496094 21.230469 51.613281 21.578125 C 51.726562 21.921875 51.769531 23.191406 51.6875 23.652344 C 51.582031 24.238281 51.308594 24.730469 50.976562 24.96875 C 50.597656 25.230469 49.902344 25.28125 49.445312 25.078125 C 48.707031 24.75 48.335938 23.46875 48.5625 22.039062 C 48.738281 20.921875 49.308594 20.367188 50.242188 20.421875 C 50.566406 20.441406 50.710938 20.488281 50.917969 20.636719 Z M 50.917969 20.636719 "/>
<path style=" stroke:none;fill-rule:nonzero;fill:rgb(0%,0%,0%);fill-opacity:1;" d="M 16.53125 21.71875 C 16.53125 24.136719 16.550781 24.683594 16.636719 25.019531 C 16.851562 25.855469 17.210938 26.347656 17.847656 26.691406 C 18.179688 26.867188 18.230469 26.875 19.101562 26.875 C 20.144531 26.875 20.40625 26.796875 20.976562 26.308594 C 21.316406 26.019531 21.335938 26.027344 21.363281 26.511719 L 21.382812 26.808594 L 23.335938 26.808594 L 23.351562 22.808594 L 23.367188 18.816406 L 21.21875 18.816406 L 21.21875 21.671875 C 21.21875 24.5 21.21875 24.527344 21.074219 24.703125 C 20.847656 25 20.347656 25.199219 19.820312 25.199219 C 19.253906 25.199219 18.964844 25.058594 18.785156 24.699219 C 18.652344 24.453125 18.648438 24.316406 18.628906 21.625 L 18.609375 18.816406 L 16.53125 18.816406 Z M 16.53125 21.71875 "/>
<path style=" stroke:none;fill-rule:nonzero;fill:rgb(0%,0%,0%);fill-opacity:1;" d="M 55.195312 22.203125 L 55.195312 23.09375 L 57.230469 23.078125 L 59.261719 23.058594 L 59.28125 22.183594 L 59.300781 21.316406 L 55.195312 21.316406 Z M 55.195312 22.203125 "/>
<path style=" stroke:none;fill-rule:nonzero;fill:rgb(0%,0%,0%);fill-opacity:1;" d="M 69.332031 22.183594 L 69.351562 23.058594 L 71.386719 23.078125 L 73.417969 23.09375 L 73.417969 21.316406 L 69.3125 21.316406 Z M 69.332031 22.183594 "/>
</g>
</svg>
