<?xml version="1.0" standalone="no"?>
<!DOCTYPE svg PUBLIC "-//W3C//DTD SVG 20010904//EN"
 "http://www.w3.org/TR/2001/REC-SVG-20010904/DTD/svg10.dtd">
<svg version="1.0" xmlns="http://www.w3.org/2000/svg"
 width="150" height="70" viewBox="0 0 1915.000000 560.000000"
 preserveAspectRatio="xMidYMid meet">

<g transform="translate(0.000000,560.000000) scale(0.100000,-0.100000)"
fill="#000000" stroke="none">
<path d="M2796 4231 c-4 -6 -17 -55 -28 -108 -21 -94 -22 -131 -27 -933 l-6
-835 -38 -155 c-21 -85 -40 -165 -42 -177 -6 -27 -23 -29 -96 -7 -81 24 -167
62 -227 101 l-54 34 79 82 c87 89 124 151 142 237 9 40 11 229 9 680 l-3 625
-185 2 c-102 1 -209 5 -238 8 -66 7 -143 35 -189 71 l-36 27 6 -35 c9 -56 54
-142 102 -196 58 -64 121 -91 248 -105 l98 -11 -3 -481 -3 -480 -27 -58 c-26
-55 -135 -177 -158 -177 -23 0 -114 157 -126 218 -6 28 -3 31 40 50 99 44 114
146 33 230 -46 49 -100 73 -175 79 -90 7 -161 -12 -317 -87 -69 -33 -149 -66
-176 -72 -27 -6 -48 -16 -46 -22 11 -32 240 -126 310 -126 45 0 51 -7 64 -71
56 -275 329 -587 632 -720 84 -37 223 -79 263 -79 21 0 23 -4 72 -160 41 -129
93 -235 116 -235 26 0 97 153 128 276 l29 114 79 16 c124 25 190 47 288 96
277 139 479 385 562 684 l27 96 100 11 c82 9 114 18 183 51 46 22 84 44 84 50
0 5 -24 18 -52 29 -29 11 -98 42 -153 70 -55 27 -110 52 -122 56 -16 5 -26 20
-34 49 -14 52 -58 142 -97 199 -94 137 -243 232 -422 268 l-85 17 -3 55 -3 55
92 11 c113 14 183 46 239 109 45 51 85 129 96 187 l7 39 -36 -27 c-81 -62
-120 -69 -380 -74 l-238 -4 3 -652 3 -651 38 -79 c30 -63 55 -97 117 -158 44
-43 80 -82 80 -86 0 -38 -343 -169 -372 -143 -7 6 -57 213 -80 334 -8 43 -13
318 -18 887 -6 780 -7 829 -26 900 -23 87 -38 118 -48 101z m648 -1093 c69
-35 164 -125 194 -185 l21 -40 -39 -18 c-73 -33 -110 -90 -110 -168 0 -54 19
-81 80 -112 l49 -25 -11 -37 c-14 -54 -75 -167 -104 -194 l-24 -23 -65 64
c-41 41 -73 84 -92 124 l-28 61 -3 283 c-2 156 -1 290 2 298 8 21 53 11 130
-28z"/>
<path d="M8370 3365 l0 -305 -47 36 c-96 73 -115 79 -253 79 -118 0 -128 -2
-185 -29 -169 -83 -268 -268 -282 -527 -10 -201 29 -374 112 -499 52 -76 103
-121 182 -158 52 -24 69 -27 173 -27 105 0 120 2 171 27 30 15 75 46 99 68 24
22 44 40 45 40 1 0 5 -27 9 -60 l7 -60 144 0 145 0 0 860 0 860 -160 0 -160 0
0 -305z m-81 -478 c79 -53 81 -60 81 -333 l0 -241 -29 -40 c-61 -84 -210 -110
-299 -51 -85 57 -129 214 -112 399 10 110 23 155 60 211 44 66 95 90 186 86
57 -3 79 -8 113 -31z"/>
<path d="M13000 3364 l0 -306 -35 31 c-20 17 -59 43 -88 59 -49 25 -60 27
-177 27 -119 0 -128 -1 -185 -30 -125 -62 -220 -193 -262 -360 -26 -104 -23
-362 5 -466 45 -166 138 -291 261 -352 62 -30 71 -32 181 -32 105 0 120 2 171
28 31 15 77 45 102 67 l45 40 7 -60 7 -60 149 0 149 0 0 860 0 860 -165 0
-165 0 0 -306z m-81 -477 c79 -53 81 -60 81 -332 l0 -240 -26 -39 c-67 -98
-237 -115 -324 -32 -70 66 -95 166 -88 349 6 142 29 215 82 267 49 48 81 60
162 57 58 -2 78 -7 113 -30z"/>
<path d="M18365 3586 c-189 -43 -311 -129 -377 -264 -31 -62 -33 -73 -33 -172
0 -93 3 -112 27 -162 71 -152 194 -238 493 -346 236 -85 283 -112 315 -178 27
-56 24 -140 -6 -182 -54 -74 -212 -109 -344 -77 -119 29 -183 92 -197 196 l-8
54 -168 3 -167 2 0 -38 c0 -177 143 -360 343 -438 138 -54 347 -70 505 -39
174 35 324 144 372 271 59 159 26 343 -83 461 -84 91 -185 147 -402 223 -299
105 -372 165 -345 284 12 56 38 87 101 120 47 26 65 30 134 30 44 0 101 -5
126 -13 88 -25 158 -108 159 -188 l0 -33 171 0 172 0 -7 55 c-22 194 -150 342
-353 411 -68 24 -97 28 -223 30 -98 3 -164 -1 -205 -10z"/>
<path d="M6400 2765 l0 -815 550 0 550 0 0 135 0 135 -380 0 -380 0 0 220 0
220 320 0 320 0 0 130 0 130 -320 0 -320 0 0 195 0 195 375 0 375 0 0 135 0
135 -545 0 -545 0 0 -815z"/>
<path d="M16448 2973 c-3 -561 -4 -611 -21 -648 -23 -51 -63 -94 -104 -111
-72 -31 -200 -8 -245 43 -23 26 -48 98 -48 139 l0 34 -171 0 -172 0 7 -70 c11
-124 58 -222 143 -302 93 -86 218 -128 382 -128 288 1 476 130 548 377 14 51
17 135 21 666 l3 607 -170 0 -170 0 -3 -607z"/>
<path d="M10553 3166 c-73 -18 -172 -68 -225 -115 -53 -47 -104 -138 -113
-203 l-7 -48 166 0 166 0 0 26 c0 36 36 83 76 100 49 20 152 18 194 -4 47 -26
74 -82 78 -163 l4 -66 -168 -5 c-146 -5 -180 -9 -249 -31 -172 -56 -263 -152
-284 -299 -19 -135 17 -237 113 -324 88 -80 143 -99 291 -99 108 0 125 3 176
26 30 14 71 40 91 58 41 35 48 38 48 14 0 -9 5 -32 12 -50 l12 -33 164 0 164
0 -5 23 c-3 12 -13 49 -21 82 -13 48 -16 125 -16 375 0 173 -5 349 -10 390
-23 178 -133 297 -317 345 -70 18 -266 19 -340 1z m337 -770 c0 -99 -1 -106
-27 -137 -59 -69 -208 -103 -284 -64 -65 34 -88 128 -50 204 37 72 108 99 259
100 l102 1 0 -104z"/>
<path d="M11923 3155 c-29 -15 -72 -49 -97 -76 l-44 -49 -7 65 -7 65 -154 0
-154 0 0 -605 0 -605 165 0 165 0 0 404 0 404 40 39 c51 52 108 68 228 67 l92
-2 -2 157 -3 156 -85 3 c-75 2 -91 0 -137 -23z"/>
<path d="M13940 3164 c-185 -50 -311 -170 -376 -359 -23 -67 -28 -102 -32
-216 -7 -203 22 -317 113 -445 102 -143 257 -214 464 -214 277 1 477 157 548
430 23 89 23 301 0 390 -57 216 -197 364 -394 415 -73 19 -250 19 -323 -1z
m256 -263 c52 -24 109 -90 131 -155 14 -40 18 -82 17 -196 0 -125 -3 -153 -22
-201 -40 -101 -117 -159 -211 -159 -136 0 -213 72 -247 229 -34 162 -1 354 74
435 60 64 174 85 258 47z"/>
<path d="M8940 2723 c0 -466 4 -513 51 -604 33 -66 94 -124 162 -155 58 -27
70 -29 187 -29 116 0 129 2 184 28 33 15 78 43 102 62 23 19 44 31 48 28 3 -4
6 -28 6 -55 l0 -48 155 0 155 0 0 605 0 605 -165 0 -165 0 0 -433 0 -433 -32
-31 c-56 -53 -95 -67 -183 -68 -68 0 -85 3 -113 23 -68 49 -67 41 -70 515 l-3
427 -159 0 -160 0 0 -437z"/>
<path d="M14880 2650 l0 -130 315 0 315 0 0 130 0 130 -315 0 -315 0 0 -130z"/>
<path d="M17050 2650 l0 -130 315 0 315 0 0 130 0 130 -315 0 -315 0 0 -130z"/>
</g>
</svg>
